# xmcd CD database file
#
# Track frame offsets:
#	150
#	12049
#	34857
#	54194
#	66995
#	86511
#	103828
#	120769
#	130506
#	142929
#	161269
#	174337
#	185457
#	209172
#	221579
#
# Disc length: 3123 seconds
#
# Revision: 4
# Processed by: cddbd v1.5.2PL0 Copyright (c) Steve Scherf et al.
# Submitted via: CDex 1.70beta2
#
DISCID=c20c310f
DTITLE=Hills - Friday the 17th
DYEAR=2006
DGENRE=Country
TTITLE0=Friday the 17th
TTITLE1=I believe
TTITLE2=What's going on
TTITLE3=Let go
TTITLE4=Suzie
TTITLE5=Feel like dying
TTITLE6=Riding
TTITLE7=Rock my boat
TTITLE8=Get it together
TTITLE9=When the sun comes down
TTITLE10=Dammned exhaust
TTITLE11=Falling
TTITLE12=I do wrong
TTITLE13=Running from solid ground
TTITLE14=Friday the 17th (reprise)
EXTD=YEAR: 2006
EXTT0=
EXTT1=
EXTT2=
EXTT3=
EXTT4=
EXTT5=
EXTT6=
EXTT7=
EXTT8=
EXTT9=
EXTT10=
EXTT11=
EXTT12=
EXTT13=
EXTT14=
PLAYORDER=
